<svg width="19" height="16" viewBox="0 0 19 16" fill="none" xmlns="http://www.w3.org/2000/svg">
<path fill-rule="evenodd" clip-rule="evenodd" d="M12.2592 1.59997V0.799985C12.2592 0.358393 12.7169 0 13.2808 0C13.8448 0 14.3024 0.358393 14.3024 0.799985V1.59997C16.5591 1.59997 18.3888 3.03274 18.3888 4.79991V12.7998C18.3888 14.5669 16.5591 15.9997 14.3024 15.9997C11.3806 15.9997 7.00717 15.9997 4.08641 15.9997C1.82969 15.9997 0 14.5669 0 12.7998V4.79991C0 3.03274 1.82969 1.59997 4.08641 1.59997V0.799985C4.08641 0.358393 4.54409 0 5.10801 0C5.67194 0 6.12961 0.358393 6.12961 0.799985V1.59997H12.2592ZM16.3456 7.99985H2.0432V12.7998C2.0432 13.6829 2.95754 14.3997 4.08641 14.3997H14.3024C15.4303 14.3997 16.3456 13.6829 16.3456 12.7998V7.99985ZM14.3024 3.19994V3.99992C14.3024 4.44152 13.8448 4.79991 13.2808 4.79991C12.7169 4.79991 12.2592 4.44152 12.2592 3.99992V3.19994H6.12961V3.99992C6.12961 4.44152 5.67194 4.79991 5.10801 4.79991C4.54409 4.79991 4.08641 4.44152 4.08641 3.99992V3.19994C2.95754 3.19994 2.0432 3.91593 2.0432 4.79991V6.39988H16.3456V4.79991C16.3456 3.91593 15.4303 3.19994 14.3024 3.19994Z" fill="#666D78"/>
</svg>
