<svg width="14" height="18" viewBox="0 0 14 18" fill="none" xmlns="http://www.w3.org/2000/svg">
<path d="M6.75 0C10.4719 0 13.5 3.02812 13.5 6.75C13.5 10.2349 7.95787 16.9736 7.32562 17.7308C7.18313 17.9014 6.97237 18 6.75 18C6.52763 18 6.31687 17.9014 6.17438 17.7308C5.54213 16.9736 0 10.2349 0 6.75C0 3.02812 3.02812 0 6.75 0ZM6.75 16.0605C8.61675 13.71 12 8.9865 12 6.75C12 3.855 9.645 1.5 6.75 1.5C3.855 1.5 1.5 3.855 1.5 6.75C1.5 8.9865 4.88325 13.71 6.75 16.0605Z" fill="#666D78"/>
<path d="M6.75 3C8.81775 3 10.5 4.68225 10.5 6.75C10.5 8.81775 8.81775 10.5 6.75 10.5C5.73075 10.5 4.7775 10.098 4.06575 9.36825C3.77662 9.07163 3.78263 8.59687 4.07888 8.30775C4.3755 8.01862 4.85025 8.02425 5.13937 8.32087C5.5665 8.75887 6.13837 9 6.75 9C7.99088 9 9 7.99088 9 6.75C9 5.50912 7.99088 4.5 6.75 4.5C5.50912 4.5 4.5 5.50912 4.5 6.75C4.5 7.164 4.164 7.5 3.75 7.5C3.336 7.5 3 7.164 3 6.75C3 4.68225 4.68225 3 6.75 3Z" fill="#666D78"/>
</svg>
