<svg width="226" height="35" viewBox="0 0 226 35" fill="none" xmlns="http://www.w3.org/2000/svg">
<path d="M6.38456 6.14987C6.38456 3.84367 7.81328 1.44703 10.7153 1.44703C16.0284 1.44703 19.0644 6.14987 19.0644 11.6214H19.2876V0H19.0644C19.0644 2.5323 18.1714 2.9845 16.5641 2.5323C14.5997 1.98967 13.1263 1.22093 10.6261 1.22093C4.55402 1.22093 0.223237 4.88372 0.223237 10.2649C0.223237 20.8463 14.9568 20.3036 14.9568 28.8501C14.9568 30.9302 13.6621 33.553 9.73311 33.553C2.72348 33.553 0.223237 26.0013 0.223237 23.3786H0V35H0.223237C0.223237 31.9251 2.50025 32.5129 4.01826 32.9199C5.62556 33.3269 7.41145 33.7791 9.86705 33.7791C17.3231 33.7791 21.4307 29.6189 21.4307 24.1473C21.4307 14.1537 6.38456 13.5207 6.38456 6.14987Z" fill="white"/>
<path d="M48.6882 10.9884V11.2145C50.8313 11.2145 51.0545 14.9225 50.2062 17.2739C50.0276 17.8165 48.5543 22.2933 47.2595 26.4083L41.0089 10.9884H40.1606L35.5619 25.8204C35.0708 24.6447 31.8562 16.7765 30.7847 14.2442C29.8471 11.9832 29.981 11.2145 31.499 11.2145V10.9884H21.0069V11.2145C22.9714 11.2145 23.775 13.4302 24.668 15.4651C25.8735 18.2235 32.4366 33.3269 32.4366 33.3269H33.3742L37.9282 18.6305L44.2235 33.3269H45.1611C45.1611 33.3269 49.7598 18.9018 50.8313 16.0982C51.9028 13.3398 53.4208 11.6214 55.43 11.2145V10.9884H48.6882Z" fill="white"/>
<path d="M64.9852 28.1266V17.9974C64.9852 13.4302 65.2977 11.4406 65.6995 11.2145V10.9884H55.4307V11.2145C57.8416 11.2145 58.2434 12.4806 58.2434 16.1434V28.1266C58.2434 31.7894 57.8416 33.1008 55.4307 33.1008V33.3269H67.798V33.1008C65.387 33.1008 64.9852 31.8346 64.9852 28.1718V28.1266ZM61.592 7.46124C63.5565 7.46124 65.1191 5.78811 65.1191 3.75323C65.1191 1.67313 63.5565 0.0452185 61.592 0.0452185C59.6721 0.0452185 58.1095 1.67313 58.1095 3.75323C58.1095 5.78811 59.6721 7.46124 61.592 7.46124Z" fill="white"/>
<path d="M74.2889 14.1537C74.2889 11.938 75.7176 10.7623 77.9946 10.7623C79.9145 10.7623 81.5218 11.3953 82.3254 12.2545C83.3969 13.4755 82.0129 14.3798 81.8789 15.6912C81.7896 17.0026 83.1291 17.907 84.2899 17.4548C85.5847 17.0026 85.8079 15.1938 84.8257 13.7015C83.9774 12.4354 81.4325 10.5362 77.1017 10.5362C72.9941 10.5362 69.4223 12.3902 69.1991 16.4147C68.708 25.2326 82.4147 23.7403 82.1022 29.7997C81.9682 32.1964 79.8252 33.553 76.9231 33.553C74.5121 33.553 72.5476 32.6486 71.6993 31.6537C70.5385 30.3876 72.1458 29.438 72.2351 28.1266C72.3244 26.9057 71.2529 25.8656 69.8242 26.3178C68.6633 26.7248 68.3062 28.624 69.333 30.1163C70.1813 31.3824 72.6816 33.7339 77.2356 33.7339C82.5486 33.7339 86.3437 31.4729 86.8794 27.4935C88.0849 18.314 74.2889 19.1731 74.2889 14.1537Z" fill="white"/>
<path d="M94.3139 14.1537C94.3139 11.938 95.7426 10.7623 98.0196 10.7623C99.9395 10.7623 101.547 11.3953 102.35 12.2545C103.422 13.4755 102.038 14.3798 101.904 15.6912C101.815 17.0026 103.154 17.907 104.315 17.4548C105.61 17.0026 105.833 15.1938 104.851 13.7015C104.002 12.4354 101.457 10.5362 97.1267 10.5362C93.0191 10.5362 89.4473 12.3902 89.2241 16.4147C88.733 25.2326 102.44 23.7403 102.127 29.7997C101.993 32.1964 99.8502 33.553 96.9481 33.553C94.5371 33.553 92.5726 32.6486 91.7243 31.6537C90.5635 30.3876 92.1708 29.438 92.2601 28.1266C92.3494 26.9057 91.2779 25.8656 89.8492 26.3178C88.6883 26.7248 88.3312 28.624 89.358 30.1163C90.2063 31.3824 92.7066 33.7339 97.2606 33.7339C102.574 33.7339 106.369 31.4729 106.904 27.4935C108.11 18.314 94.3139 19.1731 94.3139 14.1537Z" fill="white"/>
<path d="M135.689 18.9922V19.2183C138.234 19.2183 138.502 20.8463 138.502 24.1473V33.0556C137.654 33.2817 136.671 33.4173 135.689 33.4173C128.635 33.5982 124.795 25.8204 124.259 18.5853C123.679 11.3953 126.09 2.12532 132.876 1.53747C140.779 0.904394 144.663 8.59173 144.663 11.3953H144.886V0H144.663C144.663 3.07494 143.056 2.84884 141.002 2.3062C138.948 1.76357 135.555 1.08527 132.876 1.35659C123.59 2.17054 115.687 8.18475 116.446 18.9922C117.205 29.7997 126.447 34.2313 135.689 33.6434C137.743 33.5078 139.395 33.146 140.734 32.6034C142.743 32.0607 145.244 31.6085 145.244 33.7791H145.422V24.1473C145.467 20.8463 145.69 19.2183 148.235 19.2183V18.9922H135.689Z" fill="white"/>
<path d="M158.177 7.05426C158.177 2.48708 158.489 0.497418 158.936 0.27132V0.0452185H148.667V0.27132C151.033 0.27132 151.435 1.53747 151.48 5.20026V28.1266C151.435 31.7894 151.033 33.1008 148.667 33.1008V33.3269H160.989V33.1008C158.623 33.1008 158.177 31.8346 158.177 28.1266V7.05426Z" fill="white"/>
<path d="M183.599 33.4625C181.545 33.4625 181.456 31.699 181.456 28.624C181.456 28.624 181.456 22.6098 181.456 18.0879C181.456 11.9832 176.009 10.5362 171.812 10.5362C167.035 10.5362 164.535 13.2494 163.82 14.9225C163.061 16.7765 163.91 18.4496 165.249 18.7209C166.812 19.0375 167.794 17.6809 167.437 16.4599C167.08 15.1938 165.651 14.6059 166.276 13.1589C166.946 11.7571 168.776 10.7171 171.678 10.7171C174.937 10.7171 174.714 13.6111 174.714 17.4548C174.714 18.6305 174.714 20.1227 174.714 21.615C174.268 21.9767 173.643 22.2933 172.794 22.6098C168.33 24.1473 162.168 23.469 161.945 29.0762C161.767 34.0052 167.481 34.4121 170.83 33.3721C172.705 32.8295 174 31.3824 174.848 29.5736C175.607 33.4173 180.251 33.7791 182.84 33.7791C183.688 33.7791 184.581 33.553 185.117 33.2364V32.9651C184.894 33.146 184.269 33.4625 183.599 33.4625ZM171.589 32.8747C168.865 34.2765 167.705 32.1512 168.017 28.0362C168.285 23.9212 170.83 23.5142 173.018 22.7003C173.732 22.4289 174.312 22.1576 174.714 21.8863C174.714 25.1421 174.714 28.3979 174.714 28.3979C174.714 28.7145 174.759 28.9858 174.804 29.2571C174.089 30.7946 173.107 32.1512 171.589 32.8747Z" fill="white"/>
<path d="M223.187 18.8566C223.187 13.0685 220.062 10.5362 215.285 10.5362C211.445 10.5362 209.659 12.2545 208.186 15.0581C207.07 11.938 204.435 10.5362 200.908 10.5362C197.381 10.5362 195.863 11.8023 194.524 13.8824C194.658 12.1641 194.881 11.3501 195.149 11.2145V10.9884H184.88V11.2145C187.246 11.2145 187.693 12.4806 187.693 16.1434V28.1266C187.693 31.7894 187.246 33.1008 184.88 33.1008V33.3269H197.203V33.1008C194.836 33.1008 194.434 31.7894 194.39 28.1266C194.39 28.1266 194.434 15.2842 194.479 14.3346C195.506 12.2997 197.292 10.9884 199.078 10.9884C202.292 10.9884 202.069 14.9225 202.069 17.9974V28.1266C202.069 31.7894 201.667 33.1008 199.256 33.1008V33.3269H211.624V33.1008C209.213 33.1008 208.811 31.7894 208.811 28.1266V18.8566C208.811 17.5 208.632 16.3243 208.275 15.2842C209.391 12.7972 211.4 10.9884 213.454 10.9884C216.669 10.9884 216.49 14.9225 216.49 17.9974V28.1266C216.445 31.7894 216.044 33.1008 213.677 33.1008V33.3269H226V33.1008C223.634 33.1008 223.187 31.8346 223.187 28.1266V18.8566Z" fill="white"/>
</svg>