<svg width="297" height="45" viewBox="0 0 297 45" fill="none" xmlns="http://www.w3.org/2000/svg">
<path d="M8.39033 7.90698C8.39033 4.94186 10.2679 1.86046 14.0817 1.86046C21.0638 1.86046 25.0536 7.90698 25.0536 14.9419H25.347V0H25.0536C25.0536 3.25581 23.8802 3.83721 21.7679 3.25581C19.1863 2.55814 17.2501 1.56977 13.9643 1.56977C5.98471 1.56977 0.293369 6.27907 0.293369 13.1977C0.293369 26.8023 19.6557 26.1046 19.6557 37.093C19.6557 39.7674 17.9541 43.1395 12.7909 43.1395C3.57909 43.1395 0.293369 33.4302 0.293369 30.0581H0V45H0.293369C0.293369 41.0465 3.28572 41.8023 5.28063 42.3256C7.39288 42.8488 9.73983 43.4302 12.9669 43.4302C22.7654 43.4302 28.1634 38.0814 28.1634 31.0465C28.1634 18.1977 8.39033 17.3837 8.39033 7.90698Z" fill="black"/>
<path d="M63.9841 14.1279V14.4186C66.8004 14.4186 67.0938 19.186 65.979 22.2093C65.7443 22.907 63.808 28.6628 62.1065 33.9535L53.8922 14.1279H52.7774L46.734 33.1977C46.0886 31.686 41.8641 21.5698 40.4559 18.314C39.2238 15.407 39.3998 14.4186 41.3947 14.4186V14.1279H27.6064V14.4186C30.188 14.4186 31.2442 17.2674 32.4176 19.8837C34.0018 23.4302 42.6269 42.8488 42.6269 42.8488H43.859L49.8437 23.9535L58.1167 42.8488H59.3488C59.3488 42.8488 65.3922 24.3023 66.8004 20.6977C68.2086 17.1512 70.2035 14.9419 72.8438 14.4186V14.1279H63.9841Z" fill="black"/>
<path d="M85.4009 36.1628V23.1395C85.4009 17.2674 85.8116 14.7093 86.3396 14.4186V14.1279H72.8447V14.4186C76.0131 14.4186 76.5412 16.0465 76.5412 20.7558V36.1628C76.5412 40.8721 76.0131 42.5581 72.8447 42.5581V42.8488H89.0973V42.5581C85.9289 42.5581 85.4009 40.9302 85.4009 36.2209V36.1628ZM80.9417 9.59302C83.5233 9.59302 85.5769 7.44186 85.5769 4.82558C85.5769 2.15116 83.5233 0.0581381 80.9417 0.0581381C78.4187 0.0581381 76.3651 2.15116 76.3651 4.82558C76.3651 7.44186 78.4187 9.59302 80.9417 9.59302Z" fill="black"/>
<path d="M97.6274 18.1977C97.6274 15.3488 99.505 13.8372 102.497 13.8372C105.02 13.8372 107.133 14.6512 108.189 15.7558C109.597 17.3256 107.778 18.4884 107.602 20.1744C107.485 21.8605 109.245 23.0233 110.77 22.4419C112.472 21.8605 112.765 19.5349 111.474 17.6163C110.36 15.9884 107.015 13.5465 101.324 13.5465C95.9259 13.5465 91.232 15.9302 90.9386 21.1047C90.2932 32.4419 108.306 30.5233 107.895 38.3139C107.719 41.3953 104.903 43.1395 101.089 43.1395C97.9208 43.1395 95.3392 41.9767 94.2244 40.6977C92.6988 39.0698 94.8111 37.8488 94.9285 36.1628C95.0458 34.593 93.6376 33.2558 91.7601 33.8372C90.2346 34.3605 89.7652 36.8023 91.1147 38.7209C92.2295 40.3488 95.5152 43.3721 101.5 43.3721C108.482 43.3721 113.469 40.4651 114.173 35.3488C115.758 23.5465 97.6274 24.6512 97.6274 18.1977Z" fill="black"/>
<path d="M123.943 18.1977C123.943 15.3488 125.821 13.8372 128.813 13.8372C131.336 13.8372 133.449 14.6512 134.505 15.7558C135.913 17.3256 134.094 18.4884 133.918 20.1744C133.801 21.8605 135.561 23.0233 137.086 22.4419C138.788 21.8605 139.081 19.5349 137.79 17.6163C136.676 15.9884 133.331 13.5465 127.64 13.5465C122.242 13.5465 117.548 15.9302 117.255 21.1047C116.609 32.4419 134.622 30.5233 134.211 38.3139C134.035 41.3953 131.219 43.1395 127.405 43.1395C124.237 43.1395 121.655 41.9767 120.54 40.6977C119.015 39.0698 121.127 37.8488 121.244 36.1628C121.362 34.593 119.954 33.2558 118.076 33.8372C116.551 34.3605 116.081 36.8023 117.431 38.7209C118.545 40.3488 121.831 43.3721 127.816 43.3721C134.798 43.3721 139.785 40.4651 140.489 35.3488C142.074 23.5465 123.943 24.6512 123.943 18.1977Z" fill="black"/>
<path d="M178.317 24.4186V24.7093C181.661 24.7093 182.013 26.8023 182.013 31.0465V42.5C180.899 42.7907 179.608 42.9651 178.317 42.9651C169.047 43.1977 164.001 33.1977 163.297 23.8953C162.534 14.6512 165.702 2.73256 174.621 1.97675C185.006 1.16279 190.11 11.0465 190.11 14.6512H190.404V0H190.11C190.11 3.95349 187.998 3.66279 185.299 2.96512C182.6 2.26744 178.141 1.39535 174.621 1.74419C162.416 2.7907 152.031 10.5233 153.029 24.4186C154.026 38.3139 166.172 44.0116 178.317 43.2558C181.016 43.0814 183.187 42.6163 184.947 41.9186C187.587 41.2209 190.873 40.6395 190.873 43.4302H191.108V31.0465C191.167 26.8023 191.46 24.7093 194.804 24.7093V24.4186H178.317Z" fill="black"/>
<path d="M207.869 9.06977C207.869 3.19767 208.28 0.639537 208.867 0.34884V0.0581381H195.372V0.34884C198.481 0.34884 199.01 1.97675 199.068 6.68605V36.1628C199.01 40.8721 198.481 42.5581 195.372 42.5581V42.8488H211.566V42.5581C208.456 42.5581 207.869 40.9302 207.869 36.1628V9.06977Z" fill="black"/>
<path d="M241.278 43.0233C238.579 43.0233 238.462 40.7558 238.462 36.8023C238.462 36.8023 238.462 29.0698 238.462 23.2558C238.462 15.407 231.304 13.5465 225.789 13.5465C219.51 13.5465 216.225 17.0349 215.286 19.186C214.289 21.5698 215.403 23.7209 217.164 24.0698C219.217 24.4767 220.508 22.7326 220.039 21.1628C219.569 19.5349 217.692 18.7791 218.513 16.9186C219.393 15.1163 221.799 13.7791 225.613 13.7791C229.896 13.7791 229.602 17.5 229.602 22.4419C229.602 23.9535 229.602 25.8721 229.602 27.7907C229.016 28.2558 228.194 28.6628 227.079 29.0698C221.212 31.0465 213.115 30.1744 212.822 37.3837C212.587 43.7209 220.097 44.2442 224.498 42.907C226.962 42.2093 228.664 40.3488 229.778 38.0233C230.776 42.9651 236.878 43.4302 240.281 43.4302C241.396 43.4302 242.569 43.1395 243.273 42.7326V42.3837C242.98 42.6163 242.159 43.0233 241.278 43.0233ZM225.495 42.2674C221.916 44.0698 220.391 41.3372 220.801 36.0465C221.153 30.7558 224.498 30.2326 227.373 29.186C228.312 28.8372 229.074 28.4884 229.602 28.1395C229.602 32.3256 229.602 36.5116 229.602 36.5116C229.602 36.9186 229.661 37.2674 229.72 37.6163C228.781 39.593 227.49 41.3372 225.495 42.2674Z" fill="black"/>
<path d="M293.304 24.2442C293.304 16.8023 289.196 13.5465 282.918 13.5465C277.872 13.5465 275.525 15.7558 273.589 19.3605C272.122 15.3488 268.661 13.5465 264.025 13.5465C259.39 13.5465 257.395 15.1744 255.635 17.8488C255.811 15.6395 256.104 14.593 256.457 14.4186V14.1279H242.962V14.4186C246.071 14.4186 246.658 16.0465 246.658 20.7558V36.1628C246.658 40.8721 246.071 42.5581 242.962 42.5581V42.8488H259.156V42.5581C256.046 42.5581 255.518 40.8721 255.459 36.1628C255.459 36.1628 255.518 19.6512 255.576 18.4302C256.926 15.814 259.273 14.1279 261.62 14.1279C265.844 14.1279 265.551 19.186 265.551 23.1395V36.1628C265.551 40.8721 265.023 42.5581 261.855 42.5581V42.8488H278.107V42.5581C274.939 42.5581 274.411 40.8721 274.411 36.1628V24.2442C274.411 22.5 274.176 20.9884 273.707 19.6512C275.173 16.4535 277.814 14.1279 280.513 14.1279C284.737 14.1279 284.503 19.186 284.503 23.1395V36.1628C284.444 40.8721 283.916 42.5581 280.806 42.5581V42.8488H297V42.5581C293.89 42.5581 293.304 40.9302 293.304 36.1628V24.2442Z" fill="black"/>
</svg>
