<svg width="20" height="24" viewBox="0 0 20 24" fill="none" xmlns="http://www.w3.org/2000/svg">
<path d="M10.3349 0C3.58685 0.00100001 0 4.21606 0 8.81213C0 10.9432 1.2216 13.6022 3.1776 14.4452C3.73558 14.6902 3.66173 14.3912 4.14175 12.6012C4.1797 12.4522 4.16021 12.3232 4.03713 12.1842C1.24109 9.03113 3.49146 2.54904 9.93589 2.54904C19.2625 2.54904 17.5199 15.1312 11.5585 15.1312C10.0221 15.1312 8.87738 13.9552 9.23945 12.5002C9.67845 10.7672 10.538 8.90413 10.538 7.65511C10.538 4.50706 5.72747 4.97407 5.72747 9.14513C5.72747 10.4341 6.19519 11.3042 6.19519 11.3042C6.19519 11.3042 4.64742 17.4002 4.36022 18.5393C3.87404 20.4673 4.42587 23.5883 4.47408 23.8573C4.50382 24.0053 4.67409 24.0523 4.76948 23.9303C4.9223 23.7353 6.79317 21.1333 7.3173 19.2523C7.50808 18.5673 8.29068 15.7872 8.29068 15.7872C8.80661 16.6952 10.2939 17.4552 11.8786 17.4552C16.5926 17.4552 20 13.4152 20 8.40212C19.9836 3.59605 15.7649 0 10.3349 0V0Z" fill="white"/>
</svg>
